<svg width="363" height="320" viewBox="0 0 363 320" fill="none" xmlns="http://www.w3.org/2000/svg">
<path d="M249.315 205.362C239.922 205.362 232.309 197.748 232.309 188.356V89.631C232.306 40.1272 272.436 -0.00233459 321.939 7.62939e-05H345.993C355.385 7.62939e-05 363 7.61426 363 17.0063V23.1896C363 32.5824 355.385 40.1966 345.993 40.1966H321.939C294.637 40.1966 272.504 62.3265 272.507 89.631V188.356C272.507 197.748 264.893 205.362 255.5 205.362H249.315Z" fill="#02E544"/>
<path d="M164.622 188.356V104.36C164.622 70.6003 138.37 41.8473 104.631 40.648C69.2103 39.3891 40.0989 67.729 40.0989 102.87V188.356C40.0989 197.748 32.4847 205.362 23.0919 205.362H17.0062C7.61417 205.362 0 197.748 0 188.356V104.894C0 47.4947 46.973 -0.570145 104.361 0.529007C159.971 1.59425 204.721 47.0057 204.721 102.87V188.356C204.721 197.748 197.107 205.362 187.714 205.362H181.628C172.236 205.362 164.622 197.748 164.622 188.356Z" fill="#373636"/>
<path d="M352.946 239.587C360.023 245.765 360.797 256.546 354.588 263.596C324.734 297.496 274.817 319.717 218.269 319.717C163.396 319.717 114.748 298.801 84.6303 266.588C77.8578 259.343 78.9868 247.773 86.8334 241.708L86.8738 241.676C93.81 236.314 103.617 237.163 109.665 243.511C133.44 268.459 173.215 284.821 218.269 284.821C264.756 284.821 305.628 267.395 329.091 241.083C335.293 234.127 345.925 233.458 352.946 239.587Z" fill="#02E544"/>
</svg>
